<svg version="1.1" xmlns="http://www.w3.org/2000/svg" xmlns:xlink="http://www.w3.org/1999/xlink" width="52" height="54" viewBox="0,0,246.51563,256"><g fill="#9fdb3d" fill-rule="nonzero" stroke="none" stroke-width="1" stroke-linecap="butt" stroke-linejoin="miter" stroke-miterlimit="10" stroke-dasharray="" stroke-dashoffset="0" font-family="none" font-weight="none" font-size="none" text-anchor="none" style="mix-blend-mode: normal"><g transform="translate(1.29154,-0.00034) scale(4.74074,4.74074)"><path d="M17.8522,2.20332c-18.1506,6.52724 -23.53153,29.82698 -10.03905,43.62508c5.22035,5.3705 10.03905,7.3535 18.07025,7.3535c5.381,0 7.5494,-0.4131 10.4406,-1.8177c5.7022,-2.8918 9.1556,-6.1968 12.0469,-11.8978c2.4897,-4.7095 2.7306,-5.8662 2.8109,-12.2282c0,-6.5273 -0.2409,-7.4361 -2.8912,-12.3935c-6.1038,-11.40202 -18.9537,-16.77254 -30.4384,-12.64138zM27.0881,4.68202c-0.8834,3.96592 -2.57,5.78368 -7.7903,8.67548c-6.2643,3.3875 -11.32403,8.5102 -12.68934,12.6413c-2.08812,6.5273 0.88344,13.6329 7.95094,18.9208c2.8912,2.1482 4.1762,2.5613 8.0312,2.5613c7.6297,0 10.1194,-2.2308 19.1144,-17.3509c1.4456,-2.3961 6.9871,-5.2879 8.0312,-4.2138c0.3212,0.2479 0.0803,2.8092 -0.4016,5.6184c-2.4093,13.4676 -14.6971,22.3083 -27.5471,19.8296c-17.34747,-3.305 -25.53933,-23.465 -15.5806,-38.2546c4.0959,-5.94888 12.2075,-10.57578 18.7931,-10.65841c2.4897,0 2.6503,0.16525 2.0881,2.23083zM30.7022,4.51678c0,1.81771 -2.811,7.18822 -4.4975,8.75802c-0.8835,0.7437 -3.7747,2.5614 -6.5856,4.0486c-5.7825,3.1397 -9.5572,7.3535 -10.28002,11.402c-0.72281,3.8007 2.32902,9.5843 6.74622,12.8892c7.2281,5.2879 13.8941,2.5613 19.4356,-7.9318c1.5259,-2.9744 3.2928,-6.0315 3.9353,-6.7751c1.3653,-1.7351 6.7462,-4.6269 8.5131,-4.6269c2.0078,0 1.3653,1.4046 -0.9637,2.0656c-3.6944,0.9088 -6.666,3.718 -9.0753,8.5928c-6.1038,12.5587 -14.2153,16.2768 -22.4875,10.4105c-1.6865,-1.2393 -4.0156,-3.6354 -5.2203,-5.3705c-5.70216,-8.5102 -2.0881,-16.8551 10.1194,-23.1345c4.7384,-2.4787 7.469,-5.53577 8.3525,-9.33644c0.6425,-2.39608 2.0078,-3.05707 2.0078,-0.99148zM39.2153,6.83023c6.184,4.37907 11.565,13.79807 7.9509,13.79807c-3.9353,0 -10.3603,5.6184 -12.2878,10.741c-1.4456,3.8833 -5.6219,8.8407 -8.5131,10.2453c-3.7747,1.8177 -7.3887,0.7436 -11.324,-3.2223c-3.855,-4.0485 -4.8991,-7.7666 -3.1322,-11.6499c1.3653,-2.9744 6.184,-7.2708 9.9587,-8.758c4.9794,-1.983 10.4406,-8.59285 10.4406,-12.64139c0,-1.98296 2.7306,-1.40459 6.9069,1.48722z"></path></g></g></svg>